<svg width="1440" height="1024" viewBox="0 0 1440 1024" fill="none" xmlns="http://www.w3.org/2000/svg">
<rect width="1440" height="1024" fill="#E5E5E5"/>
<rect width="1440" height="1024" fill="white"/>
<g clip-path="url(#clip0)">
<g opacity="0.88">
<path opacity="0.88" d="M1440 0H1.92645V1024H1440V0Z" fill="url(#paint0_linear)"/>
</g>
<g opacity="0.88">
<path opacity="0.88" d="M1440 754.097C1198.82 685.339 1212.14 746.91 981.115 767.046C750.094 787.183 778.605 659.193 589 723.847C399.394 788.5 347 781.5 239.608 715.525C132.215 649.549 1.92639 670 1.92639 670V0H1440V754.097Z" fill="url(#paint1_linear)"/>
</g>
<g opacity="0.88">
<path opacity="0.88" d="M1440.07 24H2.00006V1048H1440.07V24Z" fill="url(#paint2_linear)"/>
</g>
<g opacity="0.88">
<path opacity="0.88" d="M1440.07 778.097C1198.9 709.339 1212.21 770.91 981.188 791.046C750.168 811.183 778.679 683.193 589.073 747.847C399.468 812.5 347.074 805.5 239.681 739.525C132.289 673.549 2 694 2 694V24H1440.07V778.097Z" fill="url(#paint3_linear)"/>
</g>
</g>
<defs>
<linearGradient id="paint0_linear" x1="720.963" y1="0" x2="720.963" y2="1024" gradientUnits="userSpaceOnUse">
<stop stop-color="white"/>
<stop offset="1" stop-color="white" stop-opacity="0"/>
</linearGradient>
<linearGradient id="paint1_linear" x1="720.963" y1="0.000127009" x2="721" y2="674" gradientUnits="userSpaceOnUse">
<stop stop-color="#559C95" stop-opacity="0"/>
<stop offset="0.878125" stop-color="#559C95"/>
</linearGradient>
<linearGradient id="paint2_linear" x1="721.037" y1="24" x2="721.037" y2="1048" gradientUnits="userSpaceOnUse">
<stop stop-color="white"/>
<stop offset="1" stop-color="white" stop-opacity="0"/>
</linearGradient>
<linearGradient id="paint3_linear" x1="721.037" y1="24.0001" x2="721.074" y2="698" gradientUnits="userSpaceOnUse">
<stop stop-color="#559C95" stop-opacity="0"/>
<stop offset="0.878125" stop-color="#559C95"/>
</linearGradient>
<clipPath id="clip0">
<rect width="1440" height="1024" fill="white"/>
</clipPath>
</defs>
</svg>
